<?xml version="1.0" encoding="windows-1252" standalone="no"?>
<svg xmlns="http://www.w3.org/2000/svg" xmlns:xlink="http://www.w3.org/1999/xlink" contentStyleType="text/css" height="481px" preserveAspectRatio="none" style="width:718px;height:481px;background:#FFFFFF;" version="1.1" viewBox="0 0 718 481" width="718px" zoomAndPan="magnify"><defs/><g><text fill="#000000" font-family="sans-serif" font-size="14" font-weight="bold" lengthAdjust="spacing" textLength="276" x="220.25" y="27.9951">OAuth2 Refresh Token Grant Flow</text><line style="stroke:#181818;stroke-width:0.5;stroke-dasharray:5.0,5.0;" x1="23" x2="23" y1="118.5938" y2="400.7891"/><line style="stroke:#181818;stroke-width:0.5;stroke-dasharray:5.0,5.0;" x1="178" x2="178" y1="118.5938" y2="400.7891"/><line style="stroke:#181818;stroke-width:0.5;stroke-dasharray:5.0,5.0;" x1="485.5" x2="485.5" y1="118.5938" y2="400.7891"/><line style="stroke:#181818;stroke-width:0.5;stroke-dasharray:5.0,5.0;" x1="645.5" x2="645.5" y1="118.5938" y2="400.7891"/><text fill="#000000" font-family="sans-serif" font-size="14" lengthAdjust="spacing" textLength="31" x="5" y="115.292">User</text><ellipse cx="23.5" cy="50.7969" fill="#E2E2F0" rx="8" ry="8" style="stroke:#181818;stroke-width:0.5;"/><path d="M23.5,58.7969 L23.5,85.7969 M10.5,66.7969 L36.5,66.7969 M23.5,85.7969 L10.5,100.7969 M23.5,85.7969 L36.5,100.7969 " fill="none" style="stroke:#181818;stroke-width:0.5;"/><text fill="#000000" font-family="sans-serif" font-size="14" lengthAdjust="spacing" textLength="31" x="5" y="412.7842">User</text><ellipse cx="23.5" cy="424.5859" fill="#E2E2F0" rx="8" ry="8" style="stroke:#181818;stroke-width:0.5;"/><path d="M23.5,432.5859 L23.5,459.5859 M10.5,440.5859 L36.5,440.5859 M23.5,459.5859 L10.5,474.5859 M23.5,459.5859 L36.5,474.5859 " fill="none" style="stroke:#181818;stroke-width:0.5;"/><rect fill="#E2E2F0" height="30.2969" rx="2.5" ry="2.5" style="stroke:#181818;stroke-width:0.5;" width="57" x="150" y="87.2969"/><text fill="#000000" font-family="sans-serif" font-size="14" lengthAdjust="spacing" textLength="43" x="157" y="107.292">Client</text><rect fill="#E2E2F0" height="30.2969" rx="2.5" ry="2.5" style="stroke:#181818;stroke-width:0.5;" width="57" x="150" y="399.7891"/><text fill="#000000" font-family="sans-serif" font-size="14" lengthAdjust="spacing" textLength="43" x="157" y="419.7842">Client</text><rect fill="#E2E2F0" height="30.2969" rx="2.5" ry="2.5" style="stroke:#181818;stroke-width:0.5;" width="166" x="402.5" y="87.2969"/><text fill="#000000" font-family="sans-serif" font-size="14" lengthAdjust="spacing" textLength="152" x="409.5" y="107.292">Authorization_Server</text><rect fill="#E2E2F0" height="30.2969" rx="2.5" ry="2.5" style="stroke:#181818;stroke-width:0.5;" width="166" x="402.5" y="399.7891"/><text fill="#000000" font-family="sans-serif" font-size="14" lengthAdjust="spacing" textLength="152" x="409.5" y="419.7842">Authorization_Server</text><rect fill="#E2E2F0" height="30.2969" rx="2.5" ry="2.5" style="stroke:#181818;stroke-width:0.5;" width="134" x="578.5" y="87.2969"/><text fill="#000000" font-family="sans-serif" font-size="14" lengthAdjust="spacing" textLength="120" x="585.5" y="107.292">Resource_Server</text><rect fill="#E2E2F0" height="30.2969" rx="2.5" ry="2.5" style="stroke:#181818;stroke-width:0.5;" width="134" x="578.5" y="399.7891"/><text fill="#000000" font-family="sans-serif" font-size="14" lengthAdjust="spacing" textLength="120" x="585.5" y="419.7842">Resource_Server</text><polygon fill="#181818" points="166.5,145.7266,176.5,149.7266,166.5,153.7266,170.5,149.7266" style="stroke:#181818;stroke-width:1.0;"/><line style="stroke:#181818;stroke-width:1.0;" x1="23.5" x2="172.5" y1="149.7266" y2="149.7266"/><text fill="#000000" font-family="sans-serif" font-size="13" lengthAdjust="spacing" textLength="131" x="30.5" y="144.6606">(1) Access Resource</text><polygon fill="#181818" points="473.5,174.8594,483.5,178.8594,473.5,182.8594,477.5,178.8594" style="stroke:#181818;stroke-width:1.0;"/><line style="stroke:#181818;stroke-width:1.0;" x1="178.5" x2="479.5" y1="178.8594" y2="178.8594"/><text fill="#000000" font-family="sans-serif" font-size="13" lengthAdjust="spacing" textLength="167" x="185.5" y="173.7935">(2) Request Access Token</text><polygon fill="#181818" points="189.5,203.9922,179.5,207.9922,189.5,211.9922,185.5,207.9922" style="stroke:#181818;stroke-width:1.0;"/><line style="stroke:#181818;stroke-width:1.0;" x1="183.5" x2="484.5" y1="207.9922" y2="207.9922"/><text fill="#000000" font-family="sans-serif" font-size="13" lengthAdjust="spacing" textLength="221" x="195.5" y="202.9263">(3) Access Token + Refresh Token</text><polygon fill="#181818" points="633.5,233.125,643.5,237.125,633.5,241.125,637.5,237.125" style="stroke:#181818;stroke-width:1.0;"/><line style="stroke:#181818;stroke-width:1.0;" x1="178.5" x2="639.5" y1="237.125" y2="237.125"/><text fill="#000000" font-family="sans-serif" font-size="13" lengthAdjust="spacing" textLength="245" x="185.5" y="232.0591">(4) Request Resource + Access Token</text><polygon fill="#181818" points="189.5,262.2578,179.5,266.2578,189.5,270.2578,185.5,266.2578" style="stroke:#181818;stroke-width:1.0;"/><line style="stroke:#181818;stroke-width:1.0;" x1="183.5" x2="644.5" y1="266.2578" y2="266.2578"/><text fill="#000000" font-family="sans-serif" font-size="13" lengthAdjust="spacing" textLength="82" x="195.5" y="261.1919">(5) Resource</text><polygon fill="#181818" points="473.5,291.3906,483.5,295.3906,473.5,299.3906,477.5,295.3906" style="stroke:#181818;stroke-width:1.0;"/><line style="stroke:#181818;stroke-width:1.0;" x1="178.5" x2="479.5" y1="295.3906" y2="295.3906"/><text fill="#000000" font-family="sans-serif" font-size="13" lengthAdjust="spacing" textLength="283" x="185.5" y="290.3247">(6) Request Access Token w/ Refresh Token</text><polygon fill="#181818" points="189.5,320.5234,179.5,324.5234,189.5,328.5234,185.5,324.5234" style="stroke:#181818;stroke-width:1.0;"/><line style="stroke:#181818;stroke-width:1.0;" x1="183.5" x2="484.5" y1="324.5234" y2="324.5234"/><text fill="#000000" font-family="sans-serif" font-size="13" lengthAdjust="spacing" textLength="110" x="195.5" y="319.4575">(7) Access Token</text><polygon fill="#181818" points="633.5,349.6563,643.5,353.6563,633.5,357.6563,637.5,353.6563" style="stroke:#181818;stroke-width:1.0;"/><line style="stroke:#181818;stroke-width:1.0;" x1="178.5" x2="639.5" y1="353.6563" y2="353.6563"/><text fill="#000000" font-family="sans-serif" font-size="13" lengthAdjust="spacing" textLength="282" x="185.5" y="348.5903">(8) Request Resource w/ New Access Token</text><polygon fill="#181818" points="189.5,378.7891,179.5,382.7891,189.5,386.7891,185.5,382.7891" style="stroke:#181818;stroke-width:1.0;"/><line style="stroke:#181818;stroke-width:1.0;" x1="183.5" x2="644.5" y1="382.7891" y2="382.7891"/><text fill="#000000" font-family="sans-serif" font-size="13" lengthAdjust="spacing" textLength="82" x="195.5" y="377.7231">(9) Resource</text><!--SRC=[bP1T2u8m58RlzolEPICYikyk0Wdghi3gEcISS2JEjcD2lpuNcasay7Rlrtb6acA4WvzHv460LuqcWfEwOG8x7IO4srZbZ8M2b8QpGStIK9CKChNY9fQOaFDacvIMpv2aIYv7r8z69a2ZCYsmqfXjXS6wB8CLz4OSV27Gc8-PbM9XQnkm8OyNxdk6Xghm6uEr-fsvCNSIq7S_uckxSRiDJ-hPIYqAd0kQAMTyohj0pjeX8HysRlvFFNUfVrCkMYYBpJtc7L2NDUeB]--></g></svg>